# xmcd
#
# Track frame offsets: 
#        150
#        19665
#        39840
#        71980
#        95675
#        112720
#        136905
#        158325
#        191875
#        208725
#        220525
#        234050
#        252130
#        266355
#        281440
#        295065
#        301145
#        322990
#
# Disc length: 4566 seconds
#
# Revision: 0
# Processed by: cddbd v1.4PL0 Copyright (c) Steve Scherf et al.
# Submitted via: ExactAudioCopy v0.90b4
#
DISCID=eb11d412
DTITLE=Van Morrison - The Day After
DYEAR=2000
DGENRE=Celtic
TTITLE0=Back On Top
TTITLE1=It Once Was My Life
TTITLE2=Ain't That Loving You Baby ?
TTITLE3=Outskirts Of Town
TTITLE4=Dead Or Alive
TTITLE5=Vanlose Stairway > Trans-Euro Train
TTITLE6=New Biography
TTITLE7=Moondance
TTITLE8=Jackie Wilson Said ...
TTITLE9=Baby Please Don't Go
TTITLE10=Here Comes The Night
TTITLE11=Bright Side Of The Road
TTITLE12=Domino
TTITLE13=Precious Time
TTITLE14=Going Down Geneva
TTITLE15=Brand New Cadillac
TTITLE16=The Healing Game
TTITLE17=Gloria
EXTD=
EXTT0=
EXTT1=
EXTT2=
EXTT3=
EXTT4=
EXTT5=
EXTT6=
EXTT7=
EXTT8=
EXTT9=
EXTT10=
EXTT11=
EXTT12=
EXTT13=
EXTT14=
EXTT15=
EXTT16=
EXTT17=
PLAYORDER=
